<mxfile host="app.diagrams.net" modified="2023-12-20T06:57:56.219Z" agent="Mozilla/5.0 (Windows NT 10.0; Win64; x64) AppleWebKit/537.36 (KHTML, like Gecko) Chrome/120.0.0.0 Safari/537.36 Edg/120.0.0.0" etag="mhUecvxxatqlRqawaR8v" version="22.1.11" type="github">
  <diagram name="Page-1" id="_KH8WvNP-E1hXWvvhNAG">
    <mxGraphModel dx="616" dy="557" grid="0" gridSize="10" guides="1" tooltips="1" connect="1" arrows="1" fold="1" page="1" pageScale="1" pageWidth="827" pageHeight="1169" background="#ffffff" math="0" shadow="0">
      <root>
        <mxCell id="0" />
        <mxCell id="1" parent="0" />
        <mxCell id="sVCnvMZ-RFLxho6nAMNZ-1" value="" style="line;strokeWidth=1;direction=south;html=1;strokeColor=#9673a6;fillColor=#e1d5e7;dashed=1;labelBackgroundColor=none;" vertex="1" parent="1">
          <mxGeometry x="720" y="176" width="10" height="291" as="geometry" />
        </mxCell>
        <mxCell id="sVCnvMZ-RFLxho6nAMNZ-2" value="&lt;u&gt;:系統管理員&lt;/u&gt;" style="shape=umlActor;verticalLabelPosition=bottom;verticalAlign=top;html=1;strokeColor=#9673a6;fillColor=#e1d5e7;labelBackgroundColor=none;" vertex="1" parent="1">
          <mxGeometry x="85" y="88" width="30" height="52" as="geometry" />
        </mxCell>
        <mxCell id="sVCnvMZ-RFLxho6nAMNZ-3" value="&lt;u&gt;登錄&lt;/u&gt;" style="rounded=0;whiteSpace=wrap;html=1;strokeColor=#9673a6;fillColor=#e1d5e7;labelBackgroundColor=none;" vertex="1" parent="1">
          <mxGeometry x="194" y="120" width="84" height="37" as="geometry" />
        </mxCell>
        <mxCell id="sVCnvMZ-RFLxho6nAMNZ-4" value="&lt;u&gt;系統維護&lt;br&gt;介面&lt;/u&gt;" style="rounded=0;whiteSpace=wrap;html=1;strokeColor=#9673a6;fillColor=#e1d5e7;labelBackgroundColor=none;" vertex="1" parent="1">
          <mxGeometry x="520" y="120" width="84" height="37" as="geometry" />
        </mxCell>
        <mxCell id="sVCnvMZ-RFLxho6nAMNZ-5" value="&lt;u&gt;管理介面&lt;/u&gt;" style="rounded=0;whiteSpace=wrap;html=1;strokeColor=#9673a6;fillColor=#e1d5e7;labelBackgroundColor=none;" vertex="1" parent="1">
          <mxGeometry x="357" y="120" width="84" height="37" as="geometry" />
        </mxCell>
        <mxCell id="sVCnvMZ-RFLxho6nAMNZ-6" value="" style="line;strokeWidth=1;direction=south;html=1;strokeColor=#9673a6;fillColor=#e1d5e7;dashed=1;labelBackgroundColor=none;" vertex="1" parent="1">
          <mxGeometry x="95" y="176" width="10" height="309" as="geometry" />
        </mxCell>
        <mxCell id="sVCnvMZ-RFLxho6nAMNZ-7" value="" style="line;strokeWidth=1;direction=south;html=1;strokeColor=#9673a6;fillColor=#e1d5e7;dashed=1;labelBackgroundColor=none;" vertex="1" parent="1">
          <mxGeometry x="394" y="176" width="10" height="309" as="geometry" />
        </mxCell>
        <mxCell id="sVCnvMZ-RFLxho6nAMNZ-8" value="" style="line;strokeWidth=1;direction=south;html=1;strokeColor=#9673a6;fillColor=#e1d5e7;dashed=1;labelBackgroundColor=none;" vertex="1" parent="1">
          <mxGeometry x="231" y="176" width="10" height="309" as="geometry" />
        </mxCell>
        <mxCell id="sVCnvMZ-RFLxho6nAMNZ-9" value="" style="line;strokeWidth=1;direction=south;html=1;strokeColor=#9673a6;fillColor=#e1d5e7;dashed=1;labelBackgroundColor=none;" vertex="1" parent="1">
          <mxGeometry x="557" y="176" width="10" height="309" as="geometry" />
        </mxCell>
        <mxCell id="sVCnvMZ-RFLxho6nAMNZ-10" value="" style="edgeStyle=orthogonalEdgeStyle;rounded=0;orthogonalLoop=1;jettySize=auto;html=1;curved=0;strokeColor=#9673a6;labelBackgroundColor=none;fontColor=default;fillColor=#e1d5e7;" edge="1" parent="1">
          <mxGeometry relative="1" as="geometry">
            <mxPoint x="105" y="202" as="sourcePoint" />
            <mxPoint x="231" y="202" as="targetPoint" />
          </mxGeometry>
        </mxCell>
        <mxCell id="sVCnvMZ-RFLxho6nAMNZ-11" value="" style="html=1;points=[[0,0,0,0,5],[0,1,0,0,-5],[1,0,0,0,5],[1,1,0,0,-5]];perimeter=orthogonalPerimeter;outlineConnect=0;targetShapes=umlLifeline;portConstraint=eastwest;newEdgeStyle={&quot;curved&quot;:0,&quot;rounded&quot;:0};strokeColor=#9673a6;fillColor=#e1d5e7;labelBackgroundColor=none;" vertex="1" parent="1">
          <mxGeometry x="95" y="202" width="10" height="32" as="geometry" />
        </mxCell>
        <mxCell id="sVCnvMZ-RFLxho6nAMNZ-12" value="" style="html=1;points=[[0,0,0,0,5],[0,1,0,0,-5],[1,0,0,0,5],[1,1,0,0,-5]];perimeter=orthogonalPerimeter;outlineConnect=0;targetShapes=umlLifeline;portConstraint=eastwest;newEdgeStyle={&quot;curved&quot;:0,&quot;rounded&quot;:0};strokeColor=#9673a6;fillColor=#e1d5e7;labelBackgroundColor=none;" vertex="1" parent="1">
          <mxGeometry x="231" y="202" width="10" height="67" as="geometry" />
        </mxCell>
        <mxCell id="sVCnvMZ-RFLxho6nAMNZ-13" value="1:註冊" style="text;html=1;align=center;verticalAlign=middle;resizable=0;points=[];autosize=1;labelBackgroundColor=none;" vertex="1" parent="1">
          <mxGeometry x="142" y="181" width="52" height="26" as="geometry" />
        </mxCell>
        <mxCell id="sVCnvMZ-RFLxho6nAMNZ-15" value="" style="edgeStyle=orthogonalEdgeStyle;rounded=0;orthogonalLoop=1;jettySize=auto;html=1;curved=0;strokeColor=#9673a6;labelBackgroundColor=none;fontColor=default;fillColor=#e1d5e7;" edge="1" parent="1">
          <mxGeometry relative="1" as="geometry">
            <mxPoint x="241" y="217.5" as="sourcePoint" />
            <mxPoint x="393" y="217.5" as="targetPoint" />
          </mxGeometry>
        </mxCell>
        <mxCell id="sVCnvMZ-RFLxho6nAMNZ-16" value="2:身分驗證" style="text;html=1;align=center;verticalAlign=middle;resizable=0;points=[];autosize=1;labelBackgroundColor=none;" vertex="1" parent="1">
          <mxGeometry x="278" y="196" width="76" height="26" as="geometry" />
        </mxCell>
        <mxCell id="sVCnvMZ-RFLxho6nAMNZ-18" value="" style="edgeStyle=orthogonalEdgeStyle;rounded=0;orthogonalLoop=1;jettySize=auto;html=1;curved=0;strokeColor=#9673a6;labelBackgroundColor=none;fontColor=default;fillColor=#e1d5e7;" edge="1" parent="1">
          <mxGeometry relative="1" as="geometry">
            <mxPoint x="406" y="298" as="sourcePoint" />
            <mxPoint x="558" y="298" as="targetPoint" />
          </mxGeometry>
        </mxCell>
        <mxCell id="sVCnvMZ-RFLxho6nAMNZ-19" value="4:進行維護操作" style="text;html=1;align=center;verticalAlign=middle;resizable=0;points=[];autosize=1;labelBackgroundColor=none;" vertex="1" parent="1">
          <mxGeometry x="432" y="275.5" width="100" height="26" as="geometry" />
        </mxCell>
        <mxCell id="sVCnvMZ-RFLxho6nAMNZ-20" value="" style="html=1;points=[[0,0,0,0,5],[0,1,0,0,-5],[1,0,0,0,5],[1,1,0,0,-5]];perimeter=orthogonalPerimeter;outlineConnect=0;targetShapes=umlLifeline;portConstraint=eastwest;newEdgeStyle={&quot;curved&quot;:0,&quot;rounded&quot;:0};strokeColor=#9673a6;fillColor=#e1d5e7;labelBackgroundColor=none;" vertex="1" parent="1">
          <mxGeometry x="557" y="347.44" width="10" height="27" as="geometry" />
        </mxCell>
        <mxCell id="sVCnvMZ-RFLxho6nAMNZ-21" value="" style="rounded=0;orthogonalLoop=1;jettySize=auto;html=1;strokeColor=#9673a6;labelBackgroundColor=none;fontColor=default;entryX=0.763;entryY=0.14;entryDx=0;entryDy=0;entryPerimeter=0;dashed=1;fillColor=#e1d5e7;" edge="1" parent="1" source="sVCnvMZ-RFLxho6nAMNZ-41">
          <mxGeometry relative="1" as="geometry">
            <mxPoint x="397.4" y="440.35" as="sourcePoint" />
            <mxPoint x="105.00000000000003" y="438.944" as="targetPoint" />
          </mxGeometry>
        </mxCell>
        <mxCell id="sVCnvMZ-RFLxho6nAMNZ-22" value="" style="html=1;points=[[0,0,0,0,5],[0,1,0,0,-5],[1,0,0,0,5],[1,1,0,0,-5]];perimeter=orthogonalPerimeter;outlineConnect=0;targetShapes=umlLifeline;portConstraint=eastwest;newEdgeStyle={&quot;curved&quot;:0,&quot;rounded&quot;:0};strokeColor=#9673a6;fillColor=#e1d5e7;labelBackgroundColor=none;" vertex="1" parent="1">
          <mxGeometry x="720" y="347.44" width="10" height="27" as="geometry" />
        </mxCell>
        <mxCell id="sVCnvMZ-RFLxho6nAMNZ-23" value="7:退出" style="text;html=1;align=center;verticalAlign=middle;resizable=0;points=[];autosize=1;labelBackgroundColor=none;" vertex="1" parent="1">
          <mxGeometry x="325" y="416.94" width="52" height="26" as="geometry" />
        </mxCell>
        <mxCell id="sVCnvMZ-RFLxho6nAMNZ-24" value="5:提交操作" style="text;html=1;align=center;verticalAlign=middle;resizable=0;points=[];autosize=1;labelBackgroundColor=none;" vertex="1" parent="1">
          <mxGeometry x="609" y="325" width="76" height="26" as="geometry" />
        </mxCell>
        <mxCell id="sVCnvMZ-RFLxho6nAMNZ-25" value="" style="shape=table;startSize=0;container=1;collapsible=0;childLayout=tableLayout;fontSize=16;strokeColor=#9673a6;fillColor=default;swimlaneFillColor=#B5739D;gradientDirection=south;rounded=1;gradientColor=#FFFFFF;swimlaneLine=1;shadow=1;strokeWidth=2;" vertex="1" parent="1">
          <mxGeometry x="40" y="40" width="755" height="29" as="geometry" />
        </mxCell>
        <mxCell id="sVCnvMZ-RFLxho6nAMNZ-26" style="shape=tableRow;horizontal=0;startSize=0;swimlaneHead=0;swimlaneBody=0;strokeColor=#9673a6;top=0;left=0;bottom=0;right=0;collapsible=0;dropTarget=0;fillColor=#e1d5e7;points=[[0,0.5],[1,0.5]];portConstraint=eastwest;fontSize=16;swimlaneFillColor=#B5739D;swimlaneLine=1;shadow=1;strokeWidth=2;" vertex="1" parent="sVCnvMZ-RFLxho6nAMNZ-25">
          <mxGeometry width="755" height="29" as="geometry" />
        </mxCell>
        <mxCell id="sVCnvMZ-RFLxho6nAMNZ-27" value="&lt;font style=&quot;font-size: 12px;&quot;&gt;:系統管理員&lt;/font&gt;" style="shape=partialRectangle;html=1;whiteSpace=wrap;connectable=0;strokeColor=#9673a6;overflow=hidden;fillColor=#e1d5e7;top=0;left=0;bottom=0;right=0;pointerEvents=1;fontSize=16;gradientColor=#FFFFFF;swimlaneFillColor=#B5739D;swimlaneLine=1;shadow=1;strokeWidth=2;" vertex="1" parent="sVCnvMZ-RFLxho6nAMNZ-26">
          <mxGeometry width="130" height="29" as="geometry">
            <mxRectangle width="130" height="29" as="alternateBounds" />
          </mxGeometry>
        </mxCell>
        <mxCell id="sVCnvMZ-RFLxho6nAMNZ-28" value="&lt;font style=&quot;font-size: 12px;&quot;&gt;登錄&lt;/font&gt;" style="shape=partialRectangle;html=1;whiteSpace=wrap;connectable=0;strokeColor=#9673a6;overflow=hidden;fillColor=#e1d5e7;top=0;left=0;bottom=0;right=0;pointerEvents=1;fontSize=16;gradientColor=#FFFFFF;swimlaneFillColor=#B5739D;swimlaneLine=1;shadow=1;strokeWidth=2;" vertex="1" parent="sVCnvMZ-RFLxho6nAMNZ-26">
          <mxGeometry x="130" width="133" height="29" as="geometry">
            <mxRectangle width="133" height="29" as="alternateBounds" />
          </mxGeometry>
        </mxCell>
        <mxCell id="sVCnvMZ-RFLxho6nAMNZ-29" value="&lt;font style=&quot;font-size: 12px;&quot;&gt;管理介面&lt;/font&gt;" style="shape=partialRectangle;html=1;whiteSpace=wrap;connectable=0;strokeColor=#9673a6;overflow=hidden;fillColor=#e1d5e7;top=0;left=0;bottom=0;right=0;pointerEvents=1;fontSize=16;gradientColor=#FFFFFF;swimlaneFillColor=#B5739D;swimlaneLine=1;shadow=1;strokeWidth=2;" vertex="1" parent="sVCnvMZ-RFLxho6nAMNZ-26">
          <mxGeometry x="263" width="180" height="29" as="geometry">
            <mxRectangle width="180" height="29" as="alternateBounds" />
          </mxGeometry>
        </mxCell>
        <mxCell id="sVCnvMZ-RFLxho6nAMNZ-30" value="&lt;span style=&quot;font-size: 12px;&quot;&gt;系統維護介面&lt;/span&gt;" style="shape=partialRectangle;html=1;whiteSpace=wrap;connectable=0;strokeColor=#9673a6;overflow=hidden;fillColor=#e1d5e7;top=0;left=0;bottom=0;right=0;pointerEvents=1;fontSize=16;shadow=1;gradientColor=#FFFFFF;swimlaneFillColor=#B5739D;swimlaneLine=1;strokeWidth=2;" vertex="1" parent="sVCnvMZ-RFLxho6nAMNZ-26">
          <mxGeometry x="443" width="155" height="29" as="geometry">
            <mxRectangle width="155" height="29" as="alternateBounds" />
          </mxGeometry>
        </mxCell>
        <mxCell id="sVCnvMZ-RFLxho6nAMNZ-31" value="&lt;font style=&quot;font-size: 12px;&quot;&gt;系統數據庫&lt;/font&gt;" style="shape=partialRectangle;html=1;whiteSpace=wrap;connectable=0;strokeColor=#9673a6;overflow=hidden;fillColor=#e1d5e7;top=0;left=0;bottom=0;right=0;pointerEvents=1;fontSize=16;shadow=1;gradientColor=#FFFFFF;swimlaneFillColor=#B5739D;swimlaneLine=1;strokeWidth=2;" vertex="1" parent="sVCnvMZ-RFLxho6nAMNZ-26">
          <mxGeometry x="598" width="157" height="29" as="geometry">
            <mxRectangle width="157" height="29" as="alternateBounds" />
          </mxGeometry>
        </mxCell>
        <mxCell id="sVCnvMZ-RFLxho6nAMNZ-32" value="&lt;u&gt;系統數據庫&lt;/u&gt;" style="rounded=0;whiteSpace=wrap;html=1;strokeColor=#9673a6;fillColor=#e1d5e7;labelBackgroundColor=none;" vertex="1" parent="1">
          <mxGeometry x="683" y="120" width="84" height="37" as="geometry" />
        </mxCell>
        <mxCell id="sVCnvMZ-RFLxho6nAMNZ-35" value="3:驗證結果" style="text;html=1;align=center;verticalAlign=middle;resizable=0;points=[];autosize=1;labelBackgroundColor=none;" vertex="1" parent="1">
          <mxGeometry x="202" y="254" width="76" height="26" as="geometry" />
        </mxCell>
        <mxCell id="sVCnvMZ-RFLxho6nAMNZ-36" value="" style="rounded=0;orthogonalLoop=1;jettySize=auto;html=1;strokeColor=#9673a6;dashed=1;labelBackgroundColor=none;fontColor=default;entryX=1.043;entryY=0.011;entryDx=0;entryDy=0;entryPerimeter=0;fillColor=#e1d5e7;" edge="1" parent="1">
          <mxGeometry relative="1" as="geometry">
            <mxPoint x="567" y="347.44" as="sourcePoint" />
            <mxPoint x="721.5000000000001" y="346.997" as="targetPoint" />
          </mxGeometry>
        </mxCell>
        <mxCell id="sVCnvMZ-RFLxho6nAMNZ-37" value="" style="html=1;points=[[0,0,0,0,5],[0,1,0,0,-5],[1,0,0,0,5],[1,1,0,0,-5]];perimeter=orthogonalPerimeter;outlineConnect=0;targetShapes=umlLifeline;portConstraint=eastwest;newEdgeStyle={&quot;curved&quot;:0,&quot;rounded&quot;:0};strokeColor=#9673a6;fillColor=#e1d5e7;labelBackgroundColor=none;" vertex="1" parent="1">
          <mxGeometry x="557" y="396.44" width="10" height="27" as="geometry" />
        </mxCell>
        <mxCell id="sVCnvMZ-RFLxho6nAMNZ-38" value="" style="html=1;points=[[0,0,0,0,5],[0,1,0,0,-5],[1,0,0,0,5],[1,1,0,0,-5]];perimeter=orthogonalPerimeter;outlineConnect=0;targetShapes=umlLifeline;portConstraint=eastwest;newEdgeStyle={&quot;curved&quot;:0,&quot;rounded&quot;:0};strokeColor=#9673a6;fillColor=#e1d5e7;labelBackgroundColor=none;" vertex="1" parent="1">
          <mxGeometry x="720" y="396.44" width="10" height="27" as="geometry" />
        </mxCell>
        <mxCell id="sVCnvMZ-RFLxho6nAMNZ-39" value="6:操作結果" style="text;html=1;align=center;verticalAlign=middle;resizable=0;points=[];autosize=1;labelBackgroundColor=none;" vertex="1" parent="1">
          <mxGeometry x="609" y="374.44" width="76" height="26" as="geometry" />
        </mxCell>
        <mxCell id="sVCnvMZ-RFLxho6nAMNZ-40" value="" style="rounded=0;orthogonalLoop=1;jettySize=auto;html=1;strokeColor=#9673a6;dashed=1;labelBackgroundColor=none;fontColor=default;entryX=1.043;entryY=0.011;entryDx=0;entryDy=0;entryPerimeter=0;startArrow=classic;startFill=1;endArrow=none;endFill=0;fillColor=#e1d5e7;" edge="1" parent="1">
          <mxGeometry relative="1" as="geometry">
            <mxPoint x="567" y="396.44" as="sourcePoint" />
            <mxPoint x="721.5000000000001" y="395.997" as="targetPoint" />
          </mxGeometry>
        </mxCell>
        <mxCell id="sVCnvMZ-RFLxho6nAMNZ-41" value="" style="html=1;points=[[0,0,0,0,5],[0,1,0,0,-5],[1,0,0,0,5],[1,1,0,0,-5]];perimeter=orthogonalPerimeter;outlineConnect=0;targetShapes=umlLifeline;portConstraint=eastwest;newEdgeStyle={&quot;curved&quot;:0,&quot;rounded&quot;:0};strokeColor=#9673a6;fillColor=#e1d5e7;labelBackgroundColor=none;" vertex="1" parent="1">
          <mxGeometry x="557" y="445.44" width="10" height="27" as="geometry" />
        </mxCell>
        <mxCell id="sVCnvMZ-RFLxho6nAMNZ-42" value="" style="html=1;points=[[0,0,0,0,5],[0,1,0,0,-5],[1,0,0,0,5],[1,1,0,0,-5]];perimeter=orthogonalPerimeter;outlineConnect=0;targetShapes=umlLifeline;portConstraint=eastwest;newEdgeStyle={&quot;curved&quot;:0,&quot;rounded&quot;:0};strokeColor=#9673a6;fillColor=#e1d5e7;labelBackgroundColor=none;" vertex="1" parent="1">
          <mxGeometry x="95" y="438.94" width="10" height="27" as="geometry" />
        </mxCell>
        <mxCell id="sVCnvMZ-RFLxho6nAMNZ-43" value="" style="html=1;points=[[0,0,0,0,5],[0,1,0,0,-5],[1,0,0,0,5],[1,1,0,0,-5]];perimeter=orthogonalPerimeter;outlineConnect=0;targetShapes=umlLifeline;portConstraint=eastwest;newEdgeStyle={&quot;curved&quot;:0,&quot;rounded&quot;:0};strokeColor=#9673a6;fillColor=#e1d5e7;labelBackgroundColor=none;" vertex="1" parent="1">
          <mxGeometry x="394" y="167" width="10" height="26" as="geometry" />
        </mxCell>
        <mxCell id="sVCnvMZ-RFLxho6nAMNZ-44" value="" style="rounded=0;orthogonalLoop=1;jettySize=auto;html=1;strokeColor=#9673a6;labelBackgroundColor=none;fontColor=default;entryX=0.763;entryY=0.14;entryDx=0;entryDy=0;entryPerimeter=0;dashed=1;fillColor=#e1d5e7;" edge="1" parent="1" target="sVCnvMZ-RFLxho6nAMNZ-14">
          <mxGeometry relative="1" as="geometry">
            <mxPoint x="393" y="250.20000000000005" as="sourcePoint" />
            <mxPoint x="100.60000000000002" y="248.79399999999998" as="targetPoint" />
          </mxGeometry>
        </mxCell>
        <mxCell id="sVCnvMZ-RFLxho6nAMNZ-14" value="" style="html=1;points=[[0,0,0,0,5],[0,1,0,0,-5],[1,0,0,0,5],[1,1,0,0,-5]];perimeter=orthogonalPerimeter;outlineConnect=0;targetShapes=umlLifeline;portConstraint=eastwest;newEdgeStyle={&quot;curved&quot;:0,&quot;rounded&quot;:0};strokeColor=#9673a6;fillColor=#e1d5e7;labelBackgroundColor=none;" vertex="1" parent="1">
          <mxGeometry x="394" y="216" width="10" height="33" as="geometry" />
        </mxCell>
        <mxCell id="sVCnvMZ-RFLxho6nAMNZ-46" value="" style="html=1;points=[[0,0,0,0,5],[0,1,0,0,-5],[1,0,0,0,5],[1,1,0,0,-5]];perimeter=orthogonalPerimeter;outlineConnect=0;targetShapes=umlLifeline;portConstraint=eastwest;newEdgeStyle={&quot;curved&quot;:0,&quot;rounded&quot;:0};strokeColor=#9673a6;fillColor=#e1d5e7;labelBackgroundColor=none;" vertex="1" parent="1">
          <mxGeometry x="394" y="275.5" width="10" height="54" as="geometry" />
        </mxCell>
        <mxCell id="sVCnvMZ-RFLxho6nAMNZ-49" value="" style="html=1;points=[[0,0,0,0,5],[0,1,0,0,-5],[1,0,0,0,5],[1,1,0,0,-5]];perimeter=orthogonalPerimeter;outlineConnect=0;targetShapes=umlLifeline;portConstraint=eastwest;newEdgeStyle={&quot;curved&quot;:0,&quot;rounded&quot;:0};strokeColor=#9673a6;fillColor=#e1d5e7;labelBackgroundColor=none;" vertex="1" parent="1">
          <mxGeometry x="95" y="275.5" width="10" height="32" as="geometry" />
        </mxCell>
        <mxCell id="sVCnvMZ-RFLxho6nAMNZ-48" value="" style="html=1;points=[[0,0,0,0,5],[0,1,0,0,-5],[1,0,0,0,5],[1,1,0,0,-5]];perimeter=orthogonalPerimeter;outlineConnect=0;targetShapes=umlLifeline;portConstraint=eastwest;newEdgeStyle={&quot;curved&quot;:0,&quot;rounded&quot;:0};strokeColor=#9673a6;fillColor=#e1d5e7;labelBackgroundColor=none;" vertex="1" parent="1">
          <mxGeometry x="557" y="298" width="10" height="27" as="geometry" />
        </mxCell>
        <mxCell id="sVCnvMZ-RFLxho6nAMNZ-34" value="" style="rounded=0;orthogonalLoop=1;jettySize=auto;html=1;strokeColor=#9673a6;labelBackgroundColor=none;fontColor=default;entryX=0.763;entryY=0.14;entryDx=0;entryDy=0;entryPerimeter=0;dashed=1;fillColor=#e1d5e7;" edge="1" parent="1">
          <mxGeometry relative="1" as="geometry">
            <mxPoint x="394" y="275.50399999999996" as="sourcePoint" />
            <mxPoint x="100.60000000000002" y="275.50399999999996" as="targetPoint" />
          </mxGeometry>
        </mxCell>
      </root>
    </mxGraphModel>
  </diagram>
</mxfile>
